solid chassis_shell
  facet normal 0.000000 0.000000 1.000000
    outer loop
      vertex -0.700000 -0.250000 -0.150000
      vertex 0.700000 -0.250000 -0.150000
      vertex 0.700000 0.250000 -0.150000
    endloop
  endfacet
  facet normal 0.000000 0.000000 1.000000
    outer loop
      vertex -0.700000 -0.250000 -0.150000
      vertex 0.700000 0.250000 -0.150000
      vertex -0.700000 0.250000 -0.150000
    endloop
  endfacet
  facet normal 0.000000 0.000000 -1.000000
    outer loop
      vertex -0.700000 -0.250000 0.150000
      vertex -0.700000 0.250000 0.150000
      vertex 0.700000 0.250000 0.150000
    endloop
  endfacet
  facet normal 0.000000 0.000000 -1.000000
    outer loop
      vertex -0.700000 -0.250000 0.150000
      vertex 0.700000 0.250000 0.150000
      vertex 0.700000 -0.250000 0.150000
    endloop
  endfacet
  facet normal 0.000000 1.000000 0.000000
    outer loop
      vertex -0.700000 -0.250000 -0.150000
      vertex -0.700000 -0.250000 0.150000
      vertex 0.700000 -0.250000 0.150000
    endloop
  endfacet
  facet normal 0.000000 1.000000 0.000000
    outer loop
      vertex -0.700000 -0.250000 -0.150000
      vertex 0.700000 -0.250000 0.150000
      vertex 0.700000 -0.250000 -0.150000
    endloop
  endfacet
  facet normal -1.000000 0.000000 0.000000
    outer loop
      vertex 0.700000 -0.250000 -0.150000
      vertex 0.700000 -0.250000 0.150000
      vertex 0.700000 0.250000 0.150000
    endloop
  endfacet
  facet normal -1.000000 0.000000 0.000000
    outer loop
      vertex 0.700000 -0.250000 -0.150000
      vertex 0.700000 0.250000 0.150000
      vertex 0.700000 0.250000 -0.150000
    endloop
  endfacet
  facet normal 0.000000 -1.000000 0.000000
    outer loop
      vertex 0.700000 0.250000 -0.150000
      vertex 0.700000 0.250000 0.150000
      vertex -0.700000 0.250000 0.150000
    endloop
  endfacet
  facet normal 0.000000 -1.000000 0.000000
    outer loop
      vertex 0.700000 0.250000 -0.150000
      vertex -0.700000 0.250000 0.150000
      vertex -0.700000 0.250000 -0.150000
    endloop
  endfacet
  facet normal 1.000000 0.000000 -0.000000
    outer loop
      vertex -0.700000 0.250000 -0.150000
      vertex -0.700000 0.250000 0.150000
      vertex -0.700000 -0.250000 0.150000
    endloop
  endfacet
  facet normal 1.000000 0.000000 0.000000
    outer loop
      vertex -0.700000 0.250000 -0.150000
      vertex -0.700000 -0.250000 0.150000
      vertex -0.700000 -0.250000 -0.150000
    endloop
  endfacet
endsolid chassis_shell
