solid head_shell
  facet normal 0.000000 0.000000 1.000000
    outer loop
      vertex -0.070000 -0.100000 -0.060000
      vertex 0.070000 -0.100000 -0.060000
      vertex 0.070000 0.100000 -0.060000
    endloop
  endfacet
  facet normal 0.000000 0.000000 1.000000
    outer loop
      vertex -0.070000 -0.100000 -0.060000
      vertex 0.070000 0.100000 -0.060000
      vertex -0.070000 0.100000 -0.060000
    endloop
  endfacet
  facet normal 0.000000 0.000000 -1.000000
    outer loop
      vertex -0.070000 -0.100000 0.060000
      vertex -0.070000 0.100000 0.060000
      vertex 0.070000 0.100000 0.060000
    endloop
  endfacet
  facet normal 0.000000 0.000000 -1.000000
    outer loop
      vertex -0.070000 -0.100000 0.060000
      vertex 0.070000 0.100000 0.060000
      vertex 0.070000 -0.100000 0.060000
    endloop
  endfacet
  facet normal 0.000000 1.000000 0.000000
    outer loop
      vertex -0.070000 -0.100000 -0.060000
      vertex -0.070000 -0.100000 0.060000
      vertex 0.070000 -0.100000 0.060000
    endloop
  endfacet
  facet normal 0.000000 1.000000 0.000000
    outer loop
      vertex -0.070000 -0.100000 -0.060000
      vertex 0.070000 -0.100000 0.060000
      vertex 0.070000 -0.100000 -0.060000
    endloop
  endfacet
  facet normal -1.000000 0.000000 0.000000
    outer loop
      vertex 0.070000 -0.100000 -0.060000
      vertex 0.070000 -0.100000 0.060000
      vertex 0.070000 0.100000 0.060000
    endloop
  endfacet
  facet normal -1.000000 0.000000 0.000000
    outer loop
      vertex 0.070000 -0.100000 -0.060000
      vertex 0.070000 0.100000 0.060000
      vertex 0.070000 0.100000 -0.060000
    endloop
  endfacet
  facet normal 0.000000 -1.000000 0.000000
    outer loop
      vertex 0.070000 0.100000 -0.060000
      vertex 0.070000 0.100000 0.060000
      vertex -0.070000 0.100000 0.060000
    endloop
  endfacet
  facet normal 0.000000 -1.000000 0.000000
    outer loop
      vertex 0.070000 0.100000 -0.060000
      vertex -0.070000 0.100000 0.060000
      vertex -0.070000 0.100000 -0.060000
    endloop
  endfacet
  facet normal 1.000000 0.000000 -0.000000
    outer loop
      vertex -0.070000 0.100000 -0.060000
      vertex -0.070000 0.100000 0.060000
      vertex -0.070000 -0.100000 0.060000
    endloop
  endfacet
  facet normal 1.000000 0.000000 0.000000
    outer loop
      vertex -0.070000 0.100000 -0.060000
      vertex -0.070000 -0.100000 0.060000
      vertex -0.070000 -0.100000 -0.060000
    endloop
  endfacet
endsolid head_shell
