solid head_camera_lens
  facet normal 0.991445 0.130526 0.000000
    outer loop
      vertex 0.025000 0.000000 0.000000
      vertex 0.024148 0.006470 0.000000
      vertex 0.024148 0.006470 0.025000
    endloop
  endfacet
  facet normal 0.991445 0.130526 -0.000000
    outer loop
      vertex 0.025000 0.000000 0.000000
      vertex 0.024148 0.006470 0.025000
      vertex 0.025000 0.000000 0.025000
    endloop
  endfacet
  facet normal 0.923880 0.382683 0.000000
    outer loop
      vertex 0.024148 0.006470 0.000000
      vertex 0.021651 0.012500 0.000000
      vertex 0.021651 0.012500 0.025000
    endloop
  endfacet
  facet normal 0.923880 0.382683 -0.000000
    outer loop
      vertex 0.024148 0.006470 0.000000
      vertex 0.021651 0.012500 0.025000
      vertex 0.024148 0.006470 0.025000
    endloop
  endfacet
  facet normal 0.793353 0.608761 0.000000
    outer loop
      vertex 0.021651 0.012500 0.000000
      vertex 0.017678 0.017678 0.000000
      vertex 0.017678 0.017678 0.025000
    endloop
  endfacet
  facet normal 0.793353 0.608761 -0.000000
    outer loop
      vertex 0.021651 0.012500 0.000000
      vertex 0.017678 0.017678 0.025000
      vertex 0.021651 0.012500 0.025000
    endloop
  endfacet
  facet normal 0.608761 0.793353 0.000000
    outer loop
      vertex 0.017678 0.017678 0.000000
      vertex 0.012500 0.021651 0.000000
      vertex 0.012500 0.021651 0.025000
    endloop
  endfacet
  facet normal 0.608761 0.793353 -0.000000
    outer loop
      vertex 0.017678 0.017678 0.000000
      vertex 0.012500 0.021651 0.025000
      vertex 0.017678 0.017678 0.025000
    endloop
  endfacet
  facet normal 0.382683 0.923880 0.000000
    outer loop
      vertex 0.012500 0.021651 0.000000
      vertex 0.006470 0.024148 0.000000
      vertex 0.006470 0.024148 0.025000
    endloop
  endfacet
  facet normal 0.382683 0.923880 -0.000000
    outer loop
      vertex 0.012500 0.021651 0.000000
      vertex 0.006470 0.024148 0.025000
      vertex 0.012500 0.021651 0.025000
    endloop
  endfacet
  facet normal 0.130526 0.991445 0.000000
    outer loop
      vertex 0.006470 0.024148 0.000000
      vertex 0.000000 0.025000 0.000000
      vertex 0.000000 0.025000 0.025000
    endloop
  endfacet
  facet normal 0.130526 0.991445 -0.000000
    outer loop
      vertex 0.006470 0.024148 0.000000
      vertex 0.000000 0.025000 0.025000
      vertex 0.006470 0.024148 0.025000
    endloop
  endfacet
  facet normal -0.130526 0.991445 0.000000
    outer loop
      vertex 0.000000 0.025000 0.000000
      vertex -0.006470 0.024148 0.000000
      vertex -0.006470 0.024148 0.025000
    endloop
  endfacet
  facet normal -0.130526 0.991445 0.000000
    outer loop
      vertex 0.000000 0.025000 0.000000
      vertex -0.006470 0.024148 0.025000
      vertex 0.000000 0.025000 0.025000
    endloop
  endfacet
  facet normal -0.382683 0.923880 0.000000
    outer loop
      vertex -0.006470 0.024148 0.000000
      vertex -0.012500 0.021651 0.000000
      vertex -0.012500 0.021651 0.025000
    endloop
  endfacet
  facet normal -0.382683 0.923880 0.000000
    outer loop
      vertex -0.006470 0.024148 0.000000
      vertex -0.012500 0.021651 0.025000
      vertex -0.006470 0.024148 0.025000
    endloop
  endfacet
  facet normal -0.608761 0.793353 0.000000
    outer loop
      vertex -0.012500 0.021651 0.000000
      vertex -0.017678 0.017678 0.000000
      vertex -0.017678 0.017678 0.025000
    endloop
  endfacet
  facet normal -0.608761 0.793353 0.000000
    outer loop
      vertex -0.012500 0.021651 0.000000
      vertex -0.017678 0.017678 0.025000
      vertex -0.012500 0.021651 0.025000
    endloop
  endfacet
  facet normal -0.793353 0.608761 0.000000
    outer loop
      vertex -0.017678 0.017678 0.000000
      vertex -0.021651 0.012500 0.000000
      vertex -0.021651 0.012500 0.025000
    endloop
  endfacet
  facet normal -0.793353 0.608761 0.000000
    outer loop
      vertex -0.017678 0.017678 0.000000
      vertex -0.021651 0.012500 0.025000
      vertex -0.017678 0.017678 0.025000
    endloop
  endfacet
  facet normal -0.923880 0.382683 0.000000
    outer loop
      vertex -0.021651 0.012500 0.000000
      vertex -0.024148 0.006470 0.000000
      vertex -0.024148 0.006470 0.025000
    endloop
  endfacet
  facet normal -0.923880 0.382683 0.000000
    outer loop
      vertex -0.021651 0.012500 0.000000
      vertex -0.024148 0.006470 0.025000
      vertex -0.021651 0.012500 0.025000
    endloop
  endfacet
  facet normal -0.991445 0.130526 0.000000
    outer loop
      vertex -0.024148 0.006470 0.000000
      vertex -0.025000 0.000000 0.000000
      vertex -0.025000 0.000000 0.025000
    endloop
  endfacet
  facet normal -0.991445 0.130526 0.000000
    outer loop
      vertex -0.024148 0.006470 0.000000
      vertex -0.025000 0.000000 0.025000
      vertex -0.024148 0.006470 0.025000
    endloop
  endfacet
  facet normal -0.991445 -0.130526 0.000000
    outer loop
      vertex -0.025000 0.000000 0.000000
      vertex -0.024148 -0.006470 0.000000
      vertex -0.024148 -0.006470 0.025000
    endloop
  endfacet
  facet normal -0.991445 -0.130526 0.000000
    outer loop
      vertex -0.025000 0.000000 0.000000
      vertex -0.024148 -0.006470 0.025000
      vertex -0.025000 0.000000 0.025000
    endloop
  endfacet
  facet normal -0.923880 -0.382683 0.000000
    outer loop
      vertex -0.024148 -0.006470 0.000000
      vertex -0.021651 -0.012500 0.000000
      vertex -0.021651 -0.012500 0.025000
    endloop
  endfacet
  facet normal -0.923880 -0.382683 0.000000
    outer loop
      vertex -0.024148 -0.006470 0.000000
      vertex -0.021651 -0.012500 0.025000
      vertex -0.024148 -0.006470 0.025000
    endloop
  endfacet
  facet normal -0.793353 -0.608761 0.000000
    outer loop
      vertex -0.021651 -0.012500 0.000000
      vertex -0.017678 -0.017678 0.000000
      vertex -0.017678 -0.017678 0.025000
    endloop
  endfacet
  facet normal -0.793353 -0.608761 0.000000
    outer loop
      vertex -0.021651 -0.012500 0.000000
      vertex -0.017678 -0.017678 0.025000
      vertex -0.021651 -0.012500 0.025000
    endloop
  endfacet
  facet normal -0.608761 -0.793353 0.000000
    outer loop
      vertex -0.017678 -0.017678 0.000000
      vertex -0.012500 -0.021651 0.000000
      vertex -0.012500 -0.021651 0.025000
    endloop
  endfacet
  facet normal -0.608761 -0.793353 0.000000
    outer loop
      vertex -0.017678 -0.017678 0.000000
      vertex -0.012500 -0.021651 0.025000
      vertex -0.017678 -0.017678 0.025000
    endloop
  endfacet
  facet normal -0.382683 -0.923880 0.000000
    outer loop
      vertex -0.012500 -0.021651 0.000000
      vertex -0.006470 -0.024148 0.000000
      vertex -0.006470 -0.024148 0.025000
    endloop
  endfacet
  facet normal -0.382683 -0.923880 0.000000
    outer loop
      vertex -0.012500 -0.021651 0.000000
      vertex -0.006470 -0.024148 0.025000
      vertex -0.012500 -0.021651 0.025000
    endloop
  endfacet
  facet normal -0.130526 -0.991445 0.000000
    outer loop
      vertex -0.006470 -0.024148 0.000000
      vertex -0.000000 -0.025000 0.000000
      vertex -0.000000 -0.025000 0.025000
    endloop
  endfacet
  facet normal -0.130526 -0.991445 0.000000
    outer loop
      vertex -0.006470 -0.024148 0.000000
      vertex -0.000000 -0.025000 0.025000
      vertex -0.006470 -0.024148 0.025000
    endloop
  endfacet
  facet normal 0.130526 -0.991445 0.000000
    outer loop
      vertex -0.000000 -0.025000 0.000000
      vertex 0.006470 -0.024148 0.000000
      vertex 0.006470 -0.024148 0.025000
    endloop
  endfacet
  facet normal 0.130526 -0.991445 0.000000
    outer loop
      vertex -0.000000 -0.025000 0.000000
      vertex 0.006470 -0.024148 0.025000
      vertex -0.000000 -0.025000 0.025000
    endloop
  endfacet
  facet normal 0.382683 -0.923880 0.000000
    outer loop
      vertex 0.006470 -0.024148 0.000000
      vertex 0.012500 -0.021651 0.000000
      vertex 0.012500 -0.021651 0.025000
    endloop
  endfacet
  facet normal 0.382683 -0.923880 0.000000
    outer loop
      vertex 0.006470 -0.024148 0.000000
      vertex 0.012500 -0.021651 0.025000
      vertex 0.006470 -0.024148 0.025000
    endloop
  endfacet
  facet normal 0.608761 -0.793353 0.000000
    outer loop
      vertex 0.012500 -0.021651 0.000000
      vertex 0.017678 -0.017678 0.000000
      vertex 0.017678 -0.017678 0.025000
    endloop
  endfacet
  facet normal 0.608761 -0.793353 0.000000
    outer loop
      vertex 0.012500 -0.021651 0.000000
      vertex 0.017678 -0.017678 0.025000
      vertex 0.012500 -0.021651 0.025000
    endloop
  endfacet
  facet normal 0.793353 -0.608761 0.000000
    outer loop
      vertex 0.017678 -0.017678 0.000000
      vertex 0.021651 -0.012500 0.000000
      vertex 0.021651 -0.012500 0.025000
    endloop
  endfacet
  facet normal 0.793353 -0.608761 0.000000
    outer loop
      vertex 0.017678 -0.017678 0.000000
      vertex 0.021651 -0.012500 0.025000
      vertex 0.017678 -0.017678 0.025000
    endloop
  endfacet
  facet normal 0.923880 -0.382683 0.000000
    outer loop
      vertex 0.021651 -0.012500 0.000000
      vertex 0.024148 -0.006470 0.000000
      vertex 0.024148 -0.006470 0.025000
    endloop
  endfacet
  facet normal 0.923880 -0.382683 0.000000
    outer loop
      vertex 0.021651 -0.012500 0.000000
      vertex 0.024148 -0.006470 0.025000
      vertex 0.021651 -0.012500 0.025000
    endloop
  endfacet
  facet normal 0.991445 -0.130526 0.000000
    outer loop
      vertex 0.024148 -0.006470 0.000000
      vertex 0.025000 -0.000000 0.000000
      vertex 0.025000 -0.000000 0.025000
    endloop
  endfacet
  facet normal 0.991445 -0.130526 0.000000
    outer loop
      vertex 0.024148 -0.006470 0.000000
      vertex 0.025000 -0.000000 0.025000
      vertex 0.024148 -0.006470 0.025000
    endloop
  endfacet
  facet normal 0.000000 0.000000 1.000000
    outer loop
      vertex 0.000000 0.000000 0.025000
      vertex 0.025000 0.000000 0.025000
      vertex 0.024148 0.006470 0.025000
    endloop
  endfacet
  facet normal 0.000000 0.000000 -1.000000
    outer loop
      vertex 0.000000 0.000000 0.000000
      vertex 0.024148 0.006470 0.000000
      vertex 0.025000 0.000000 0.000000
    endloop
  endfacet
  facet normal 0.000000 0.000000 1.000000
    outer loop
      vertex 0.000000 0.000000 0.025000
      vertex 0.024148 0.006470 0.025000
      vertex 0.021651 0.012500 0.025000
    endloop
  endfacet
  facet normal 0.000000 0.000000 -1.000000
    outer loop
      vertex 0.000000 0.000000 0.000000
      vertex 0.021651 0.012500 0.000000
      vertex 0.024148 0.006470 0.000000
    endloop
  endfacet
  facet normal 0.000000 0.000000 1.000000
    outer loop
      vertex 0.000000 0.000000 0.025000
      vertex 0.021651 0.012500 0.025000
      vertex 0.017678 0.017678 0.025000
    endloop
  endfacet
  facet normal 0.000000 0.000000 -1.000000
    outer loop
      vertex 0.000000 0.000000 0.000000
      vertex 0.017678 0.017678 0.000000
      vertex 0.021651 0.012500 0.000000
    endloop
  endfacet
  facet normal 0.000000 0.000000 1.000000
    outer loop
      vertex 0.000000 0.000000 0.025000
      vertex 0.017678 0.017678 0.025000
      vertex 0.012500 0.021651 0.025000
    endloop
  endfacet
  facet normal 0.000000 0.000000 -1.000000
    outer loop
      vertex 0.000000 0.000000 0.000000
      vertex 0.012500 0.021651 0.000000
      vertex 0.017678 0.017678 0.000000
    endloop
  endfacet
  facet normal 0.000000 0.000000 1.000000
    outer loop
      vertex 0.000000 0.000000 0.025000
      vertex 0.012500 0.021651 0.025000
      vertex 0.006470 0.024148 0.025000
    endloop
  endfacet
  facet normal 0.000000 0.000000 -1.000000
    outer loop
      vertex 0.000000 0.000000 0.000000
      vertex 0.006470 0.024148 0.000000
      vertex 0.012500 0.021651 0.000000
    endloop
  endfacet
  facet normal 0.000000 0.000000 1.000000
    outer loop
      vertex 0.000000 0.000000 0.025000
      vertex 0.006470 0.024148 0.025000
      vertex 0.000000 0.025000 0.025000
    endloop
  endfacet
  facet normal 0.000000 0.000000 -1.000000
    outer loop
      vertex 0.000000 0.000000 0.000000
      vertex 0.000000 0.025000 0.000000
      vertex 0.006470 0.024148 0.000000
    endloop
  endfacet
  facet normal 0.000000 -0.000000 1.000000
    outer loop
      vertex 0.000000 0.000000 0.025000
      vertex 0.000000 0.025000 0.025000
      vertex -0.006470 0.024148 0.025000
    endloop
  endfacet
  facet normal 0.000000 0.000000 -1.000000
    outer loop
      vertex 0.000000 0.000000 0.000000
      vertex -0.006470 0.024148 0.000000
      vertex 0.000000 0.025000 0.000000
    endloop
  endfacet
  facet normal 0.000000 0.000000 1.000000
    outer loop
      vertex 0.000000 0.000000 0.025000
      vertex -0.006470 0.024148 0.025000
      vertex -0.012500 0.021651 0.025000
    endloop
  endfacet
  facet normal 0.000000 0.000000 -1.000000
    outer loop
      vertex 0.000000 0.000000 0.000000
      vertex -0.012500 0.021651 0.000000
      vertex -0.006470 0.024148 0.000000
    endloop
  endfacet
  facet normal 0.000000 0.000000 1.000000
    outer loop
      vertex 0.000000 0.000000 0.025000
      vertex -0.012500 0.021651 0.025000
      vertex -0.017678 0.017678 0.025000
    endloop
  endfacet
  facet normal 0.000000 0.000000 -1.000000
    outer loop
      vertex 0.000000 0.000000 0.000000
      vertex -0.017678 0.017678 0.000000
      vertex -0.012500 0.021651 0.000000
    endloop
  endfacet
  facet normal 0.000000 0.000000 1.000000
    outer loop
      vertex 0.000000 0.000000 0.025000
      vertex -0.017678 0.017678 0.025000
      vertex -0.021651 0.012500 0.025000
    endloop
  endfacet
  facet normal 0.000000 0.000000 -1.000000
    outer loop
      vertex 0.000000 0.000000 0.000000
      vertex -0.021651 0.012500 0.000000
      vertex -0.017678 0.017678 0.000000
    endloop
  endfacet
  facet normal 0.000000 0.000000 1.000000
    outer loop
      vertex 0.000000 0.000000 0.025000
      vertex -0.021651 0.012500 0.025000
      vertex -0.024148 0.006470 0.025000
    endloop
  endfacet
  facet normal 0.000000 0.000000 -1.000000
    outer loop
      vertex 0.000000 0.000000 0.000000
      vertex -0.024148 0.006470 0.000000
      vertex -0.021651 0.012500 0.000000
    endloop
  endfacet
  facet normal 0.000000 0.000000 1.000000
    outer loop
      vertex 0.000000 0.000000 0.025000
      vertex -0.024148 0.006470 0.025000
      vertex -0.025000 0.000000 0.025000
    endloop
  endfacet
  facet normal 0.000000 0.000000 -1.000000
    outer loop
      vertex 0.000000 0.000000 0.000000
      vertex -0.025000 0.000000 0.000000
      vertex -0.024148 0.006470 0.000000
    endloop
  endfacet
  facet normal 0.000000 0.000000 1.000000
    outer loop
      vertex 0.000000 0.000000 0.025000
      vertex -0.025000 0.000000 0.025000
      vertex -0.024148 -0.006470 0.025000
    endloop
  endfacet
  facet normal -0.000000 0.000000 -1.000000
    outer loop
      vertex 0.000000 0.000000 0.000000
      vertex -0.024148 -0.006470 0.000000
      vertex -0.025000 0.000000 0.000000
    endloop
  endfacet
  facet normal 0.000000 0.000000 1.000000
    outer loop
      vertex 0.000000 0.000000 0.025000
      vertex -0.024148 -0.006470 0.025000
      vertex -0.021651 -0.012500 0.025000
    endloop
  endfacet
  facet normal 0.000000 0.000000 -1.000000
    outer loop
      vertex 0.000000 0.000000 0.000000
      vertex -0.021651 -0.012500 0.000000
      vertex -0.024148 -0.006470 0.000000
    endloop
  endfacet
  facet normal 0.000000 0.000000 1.000000
    outer loop
      vertex 0.000000 0.000000 0.025000
      vertex -0.021651 -0.012500 0.025000
      vertex -0.017678 -0.017678 0.025000
    endloop
  endfacet
  facet normal 0.000000 0.000000 -1.000000
    outer loop
      vertex 0.000000 0.000000 0.000000
      vertex -0.017678 -0.017678 0.000000
      vertex -0.021651 -0.012500 0.000000
    endloop
  endfacet
  facet normal 0.000000 0.000000 1.000000
    outer loop
      vertex 0.000000 0.000000 0.025000
      vertex -0.017678 -0.017678 0.025000
      vertex -0.012500 -0.021651 0.025000
    endloop
  endfacet
  facet normal 0.000000 0.000000 -1.000000
    outer loop
      vertex 0.000000 0.000000 0.000000
      vertex -0.012500 -0.021651 0.000000
      vertex -0.017678 -0.017678 0.000000
    endloop
  endfacet
  facet normal 0.000000 0.000000 1.000000
    outer loop
      vertex 0.000000 0.000000 0.025000
      vertex -0.012500 -0.021651 0.025000
      vertex -0.006470 -0.024148 0.025000
    endloop
  endfacet
  facet normal 0.000000 0.000000 -1.000000
    outer loop
      vertex 0.000000 0.000000 0.000000
      vertex -0.006470 -0.024148 0.000000
      vertex -0.012500 -0.021651 0.000000
    endloop
  endfacet
  facet normal 0.000000 0.000000 1.000000
    outer loop
      vertex 0.000000 0.000000 0.025000
      vertex -0.006470 -0.024148 0.025000
      vertex -0.000000 -0.025000 0.025000
    endloop
  endfacet
  facet normal 0.000000 0.000000 -1.000000
    outer loop
      vertex 0.000000 0.000000 0.000000
      vertex -0.000000 -0.025000 0.000000
      vertex -0.006470 -0.024148 0.000000
    endloop
  endfacet
  facet normal 0.000000 0.000000 1.000000
    outer loop
      vertex 0.000000 0.000000 0.025000
      vertex -0.000000 -0.025000 0.025000
      vertex 0.006470 -0.024148 0.025000
    endloop
  endfacet
  facet normal 0.000000 -0.000000 -1.000000
    outer loop
      vertex 0.000000 0.000000 0.000000
      vertex 0.006470 -0.024148 0.000000
      vertex -0.000000 -0.025000 0.000000
    endloop
  endfacet
  facet normal 0.000000 0.000000 1.000000
    outer loop
      vertex 0.000000 0.000000 0.025000
      vertex 0.006470 -0.024148 0.025000
      vertex 0.012500 -0.021651 0.025000
    endloop
  endfacet
  facet normal 0.000000 0.000000 -1.000000
    outer loop
      vertex 0.000000 0.000000 0.000000
      vertex 0.012500 -0.021651 0.000000
      vertex 0.006470 -0.024148 0.000000
    endloop
  endfacet
  facet normal 0.000000 0.000000 1.000000
    outer loop
      vertex 0.000000 0.000000 0.025000
      vertex 0.012500 -0.021651 0.025000
      vertex 0.017678 -0.017678 0.025000
    endloop
  endfacet
  facet normal 0.000000 0.000000 -1.000000
    outer loop
      vertex 0.000000 0.000000 0.000000
      vertex 0.017678 -0.017678 0.000000
      vertex 0.012500 -0.021651 0.000000
    endloop
  endfacet
  facet normal 0.000000 0.000000 1.000000
    outer loop
      vertex 0.000000 0.000000 0.025000
      vertex 0.017678 -0.017678 0.025000
      vertex 0.021651 -0.012500 0.025000
    endloop
  endfacet
  facet normal 0.000000 0.000000 -1.000000
    outer loop
      vertex 0.000000 0.000000 0.000000
      vertex 0.021651 -0.012500 0.000000
      vertex 0.017678 -0.017678 0.000000
    endloop
  endfacet
  facet normal 0.000000 0.000000 1.000000
    outer loop
      vertex 0.000000 0.000000 0.025000
      vertex 0.021651 -0.012500 0.025000
      vertex 0.024148 -0.006470 0.025000
    endloop
  endfacet
  facet normal 0.000000 0.000000 -1.000000
    outer loop
      vertex 0.000000 0.000000 0.000000
      vertex 0.024148 -0.006470 0.000000
      vertex 0.021651 -0.012500 0.000000
    endloop
  endfacet
  facet normal 0.000000 0.000000 1.000000
    outer loop
      vertex 0.000000 0.000000 0.025000
      vertex 0.024148 -0.006470 0.025000
      vertex 0.025000 -0.000000 0.025000
    endloop
  endfacet
  facet normal 0.000000 0.000000 -1.000000
    outer loop
      vertex 0.000000 0.000000 0.000000
      vertex 0.025000 -0.000000 0.000000
      vertex 0.024148 -0.006470 0.000000
    endloop
  endfacet
endsolid head_camera_lens
