solid head_display
  facet normal 0.000000 0.000000 1.000000
    outer loop
      vertex -0.050000 -0.030000 -0.002500
      vertex 0.050000 -0.030000 -0.002500
      vertex 0.050000 0.030000 -0.002500
    endloop
  endfacet
  facet normal 0.000000 0.000000 1.000000
    outer loop
      vertex -0.050000 -0.030000 -0.002500
      vertex 0.050000 0.030000 -0.002500
      vertex -0.050000 0.030000 -0.002500
    endloop
  endfacet
  facet normal 0.000000 0.000000 -1.000000
    outer loop
      vertex -0.050000 -0.030000 0.002500
      vertex -0.050000 0.030000 0.002500
      vertex 0.050000 0.030000 0.002500
    endloop
  endfacet
  facet normal 0.000000 0.000000 -1.000000
    outer loop
      vertex -0.050000 -0.030000 0.002500
      vertex 0.050000 0.030000 0.002500
      vertex 0.050000 -0.030000 0.002500
    endloop
  endfacet
  facet normal 0.000000 1.000000 0.000000
    outer loop
      vertex -0.050000 -0.030000 -0.002500
      vertex -0.050000 -0.030000 0.002500
      vertex 0.050000 -0.030000 0.002500
    endloop
  endfacet
  facet normal 0.000000 1.000000 0.000000
    outer loop
      vertex -0.050000 -0.030000 -0.002500
      vertex 0.050000 -0.030000 0.002500
      vertex 0.050000 -0.030000 -0.002500
    endloop
  endfacet
  facet normal -1.000000 0.000000 0.000000
    outer loop
      vertex 0.050000 -0.030000 -0.002500
      vertex 0.050000 -0.030000 0.002500
      vertex 0.050000 0.030000 0.002500
    endloop
  endfacet
  facet normal -1.000000 0.000000 0.000000
    outer loop
      vertex 0.050000 -0.030000 -0.002500
      vertex 0.050000 0.030000 0.002500
      vertex 0.050000 0.030000 -0.002500
    endloop
  endfacet
  facet normal 0.000000 -1.000000 0.000000
    outer loop
      vertex 0.050000 0.030000 -0.002500
      vertex 0.050000 0.030000 0.002500
      vertex -0.050000 0.030000 0.002500
    endloop
  endfacet
  facet normal 0.000000 -1.000000 0.000000
    outer loop
      vertex 0.050000 0.030000 -0.002500
      vertex -0.050000 0.030000 0.002500
      vertex -0.050000 0.030000 -0.002500
    endloop
  endfacet
  facet normal 1.000000 0.000000 -0.000000
    outer loop
      vertex -0.050000 0.030000 -0.002500
      vertex -0.050000 0.030000 0.002500
      vertex -0.050000 -0.030000 0.002500
    endloop
  endfacet
  facet normal 1.000000 0.000000 0.000000
    outer loop
      vertex -0.050000 0.030000 -0.002500
      vertex -0.050000 -0.030000 0.002500
      vertex -0.050000 -0.030000 -0.002500
    endloop
  endfacet
endsolid head_display
