solid status_led_strip
  facet normal 0.000000 0.000000 1.000000
    outer loop
      vertex -0.200000 -0.020000 -0.007500
      vertex 0.200000 -0.020000 -0.007500
      vertex 0.200000 0.020000 -0.007500
    endloop
  endfacet
  facet normal 0.000000 0.000000 1.000000
    outer loop
      vertex -0.200000 -0.020000 -0.007500
      vertex 0.200000 0.020000 -0.007500
      vertex -0.200000 0.020000 -0.007500
    endloop
  endfacet
  facet normal 0.000000 0.000000 -1.000000
    outer loop
      vertex -0.200000 -0.020000 0.007500
      vertex -0.200000 0.020000 0.007500
      vertex 0.200000 0.020000 0.007500
    endloop
  endfacet
  facet normal 0.000000 0.000000 -1.000000
    outer loop
      vertex -0.200000 -0.020000 0.007500
      vertex 0.200000 0.020000 0.007500
      vertex 0.200000 -0.020000 0.007500
    endloop
  endfacet
  facet normal 0.000000 1.000000 0.000000
    outer loop
      vertex -0.200000 -0.020000 -0.007500
      vertex -0.200000 -0.020000 0.007500
      vertex 0.200000 -0.020000 0.007500
    endloop
  endfacet
  facet normal 0.000000 1.000000 0.000000
    outer loop
      vertex -0.200000 -0.020000 -0.007500
      vertex 0.200000 -0.020000 0.007500
      vertex 0.200000 -0.020000 -0.007500
    endloop
  endfacet
  facet normal -1.000000 0.000000 0.000000
    outer loop
      vertex 0.200000 -0.020000 -0.007500
      vertex 0.200000 -0.020000 0.007500
      vertex 0.200000 0.020000 0.007500
    endloop
  endfacet
  facet normal -1.000000 0.000000 0.000000
    outer loop
      vertex 0.200000 -0.020000 -0.007500
      vertex 0.200000 0.020000 0.007500
      vertex 0.200000 0.020000 -0.007500
    endloop
  endfacet
  facet normal 0.000000 -1.000000 0.000000
    outer loop
      vertex 0.200000 0.020000 -0.007500
      vertex 0.200000 0.020000 0.007500
      vertex -0.200000 0.020000 0.007500
    endloop
  endfacet
  facet normal 0.000000 -1.000000 0.000000
    outer loop
      vertex 0.200000 0.020000 -0.007500
      vertex -0.200000 0.020000 0.007500
      vertex -0.200000 0.020000 -0.007500
    endloop
  endfacet
  facet normal 1.000000 0.000000 -0.000000
    outer loop
      vertex -0.200000 0.020000 -0.007500
      vertex -0.200000 0.020000 0.007500
      vertex -0.200000 -0.020000 0.007500
    endloop
  endfacet
  facet normal 1.000000 0.000000 0.000000
    outer loop
      vertex -0.200000 0.020000 -0.007500
      vertex -0.200000 -0.020000 0.007500
      vertex -0.200000 -0.020000 -0.007500
    endloop
  endfacet
endsolid status_led_strip
